<?xml version="1.0" standalone="no"?>
<svg xmlns:xlink="http://www.w3.org/1999/xlink" id="wave" style="transform:rotate(0deg); transition: 0.3s" viewBox="0 0 1440 230" version="1.1" xmlns="http://www.w3.org/2000/svg"><defs><linearGradient id="sw-gradient-0" x1="0" x2="0" y1="1" y2="0"><stop stop-color="rgba(1, 28, 64, 1)" offset="0%"/><stop stop-color="rgba(8, 51, 89, 1)" offset="100%"/></linearGradient></defs><path style="transform:translate(0, 0px); opacity:1" fill="url(#sw-gradient-0)" d="M0,23L10,23C20,23,40,23,60,49.8C80,77,100,130,120,145.7C140,161,160,138,180,111.2C200,84,220,54,240,53.7C260,54,280,84,300,84.3C320,84,340,54,360,53.7C380,54,400,84,420,107.3C440,130,460,146,480,145.7C500,146,520,130,540,107.3C560,84,580,54,600,38.3C620,23,640,23,660,38.3C680,54,700,84,720,92C740,100,760,84,780,95.8C800,107,820,146,840,141.8C860,138,880,92,900,80.5C920,69,940,92,960,107.3C980,123,1000,130,1020,115C1040,100,1060,61,1080,53.7C1100,46,1120,69,1140,84.3C1160,100,1180,107,1200,126.5C1220,146,1240,176,1260,168.7C1280,161,1300,115,1320,99.7C1340,84,1360,100,1380,122.7C1400,146,1420,176,1430,191.7L1440,207L1440,230L1430,230C1420,230,1400,230,1380,230C1360,230,1340,230,1320,230C1300,230,1280,230,1260,230C1240,230,1220,230,1200,230C1180,230,1160,230,1140,230C1120,230,1100,230,1080,230C1060,230,1040,230,1020,230C1000,230,980,230,960,230C940,230,920,230,900,230C880,230,860,230,840,230C820,230,800,230,780,230C760,230,740,230,720,230C700,230,680,230,660,230C640,230,620,230,600,230C580,230,560,230,540,230C520,230,500,230,480,230C460,230,440,230,420,230C400,230,380,230,360,230C340,230,320,230,300,230C280,230,260,230,240,230C220,230,200,230,180,230C160,230,140,230,120,230C100,230,80,230,60,230C40,230,20,230,10,230L0,230Z"/><defs><linearGradient id="sw-gradient-1" x1="0" x2="0" y1="1" y2="0"><stop stop-color="rgba(1, 28, 64, 1)" offset="0%"/><stop stop-color="rgba(8, 51, 89, 1)" offset="100%"/></linearGradient></defs><path style="transform:translate(0, 50px); opacity:0.9" fill="url(#sw-gradient-1)" d="M0,161L10,157.2C20,153,40,146,60,118.8C80,92,100,46,120,30.7C140,15,160,31,180,42.2C200,54,220,61,240,76.7C260,92,280,115,300,103.5C320,92,340,46,360,57.5C380,69,400,138,420,164.8C440,192,460,176,480,145.7C500,115,520,69,540,65.2C560,61,580,100,600,118.8C620,138,640,138,660,141.8C680,146,700,153,720,141.8C740,130,760,100,780,72.8C800,46,820,23,840,26.8C860,31,880,61,900,80.5C920,100,940,107,960,103.5C980,100,1000,84,1020,69C1040,54,1060,38,1080,57.5C1100,77,1120,130,1140,138C1160,146,1180,107,1200,99.7C1220,92,1240,115,1260,115C1280,115,1300,92,1320,72.8C1340,54,1360,38,1380,42.2C1400,46,1420,69,1430,80.5L1440,92L1440,230L1430,230C1420,230,1400,230,1380,230C1360,230,1340,230,1320,230C1300,230,1280,230,1260,230C1240,230,1220,230,1200,230C1180,230,1160,230,1140,230C1120,230,1100,230,1080,230C1060,230,1040,230,1020,230C1000,230,980,230,960,230C940,230,920,230,900,230C880,230,860,230,840,230C820,230,800,230,780,230C760,230,740,230,720,230C700,230,680,230,660,230C640,230,620,230,600,230C580,230,560,230,540,230C520,230,500,230,480,230C460,230,440,230,420,230C400,230,380,230,360,230C340,230,320,230,300,230C280,230,260,230,240,230C220,230,200,230,180,230C160,230,140,230,120,230C100,230,80,230,60,230C40,230,20,230,10,230L0,230Z"/></svg>